<?xml version="1.0" standalone="no"?>
<!DOCTYPE svg PUBLIC "-//W3C//DTD SVG 20010904//EN"
 "http://www.w3.org/TR/2001/REC-SVG-20010904/DTD/svg10.dtd">
<svg version="1.0" xmlns="http://www.w3.org/2000/svg"
 width="614.000000pt" height="614.000000pt" viewBox="0 0 614.000000 614.000000"
 preserveAspectRatio="xMidYMid meet">
<metadata>
Created by potrace 1.14, written by Peter Selinger 2001-2017
</metadata>
<g transform="translate(0.000000,614.000000) scale(0.100000,-0.100000)"
fill="#000000" stroke="none">
<path d="M2765 6119 c-173 -18 -507 -71 -592 -94 -107 -28 -329 -108 -394
-141 -52 -26 -102 -72 -124 -114 -17 -32 -70 -60 -115 -60 -39 0 -68 -15 -210
-110 -193 -129 -298 -216 -460 -379 -227 -228 -373 -417 -464 -598 -28 -56
-36 -85 -36 -125 0 -50 -2 -55 -34 -72 -46 -25 -74 -81 -91 -181 -10 -62 -22
-99 -44 -133 -32 -52 -41 -82 -101 -349 -61 -277 -80 -410 -87 -598 -11 -333
39 -681 143 -996 58 -177 118 -253 231 -295 76 -28 78 -31 54 -109 -37 -120
-24 -186 69 -349 136 -238 356 -468 775 -812 214 -175 274 -215 448 -299 227
-109 366 -148 397 -110 19 23 33 18 61 -24 35 -49 96 -78 184 -87 39 -3 98
-14 132 -25 143 -42 268 -52 583 -45 349 7 411 14 448 49 46 43 75 49 148 30
l65 -17 247 82 c280 94 402 141 549 212 83 41 107 58 131 92 45 65 71 85 137
103 113 32 233 123 277 209 11 21 26 61 34 88 18 58 41 75 120 88 73 12 88 23
192 141 106 119 203 264 269 399 85 176 96 221 68 300 -24 68 -21 78 38 105
93 43 96 47 162 244 63 186 72 239 55 310 -12 49 -11 51 20 89 36 45 52 119
70 322 14 162 14 534 0 647 -23 182 -84 453 -132 585 -21 58 -40 82 -81 103
-19 9 -22 18 -19 57 3 41 -6 64 -77 206 -130 257 -220 382 -454 632 -128 136
-162 162 -228 174 -43 8 -64 29 -74 76 -11 49 -82 113 -296 266 -289 206 -273
196 -326 193 -46 -3 -48 -2 -68 36 -24 47 -35 53 -246 135 -184 70 -270 94
-313 86 -17 -3 -64 -26 -103 -50 -39 -25 -79 -46 -89 -48 -11 -2 -31 16 -59
51 -69 90 -104 102 -325 112 -222 10 -358 9 -465 -2z m567 -794 c856 -100
1574 -663 1872 -1468 65 -176 64 -177 -210 -177 -236 0 -226 -4 -274 110 -136
326 -406 633 -726 826 -557 334 -1283 334 -1839 -1 -329 -198 -595 -501 -738
-842 -72 -169 -130 -394 -114 -436 11 -29 53 -37 200 -37 174 0 186 5 204 80
68 274 184 482 377 676 209 208 442 331 741 390 134 27 387 24 522 -4 534
-114 940 -496 1078 -1014 16 -61 32 -99 46 -110 19 -17 56 -18 434 -18 373 0
414 -2 426 -17 18 -21 18 -320 0 -469 -80 -677 -447 -1272 -1016 -1647 -515
-339 -1150 -452 -1750 -312 -234 55 -529 181 -730 312 -331 217 -626 546 -799
891 -54 108 -126 296 -126 330 0 61 8 63 248 60 l216 -3 76 -150 c158 -315
346 -533 619 -716 244 -165 514 -265 803 -299 130 -15 386 -8 507 14 393 73
715 246 991 533 216 224 369 495 444 785 39 152 41 173 17 197 -20 20 -32 21
-190 21 -133 0 -171 -3 -180 -14 -7 -8 -23 -55 -36 -105 -77 -285 -243 -545
-463 -723 -161 -129 -237 -164 -262 -119 -6 12 -10 115 -10 264 l0 244 26 24
c105 96 214 283 256 439 32 118 31 337 -1 455 -88 327 -338 578 -667 671 -37
11 -113 18 -204 21 -123 4 -158 2 -232 -16 -169 -40 -308 -114 -431 -230 -83
-78 -142 -160 -197 -268 -43 -86 -48 -118 -26 -149 14 -18 37 -19 777 -24
l763 -5 20 -55 c42 -115 21 -371 -34 -400 -12 -6 -290 -10 -761 -10 -677 0
-744 -1 -761 -17 -25 -23 -23 -53 11 -127 39 -87 88 -160 165 -248 l66 -76 0
-234 c0 -257 -4 -278 -58 -278 -66 0 -332 223 -442 369 -111 148 -182 294
-239 490 -16 57 -36 108 -43 112 -7 5 -199 9 -425 9 -400 0 -414 1 -433 20
-18 18 -20 33 -20 158 0 872 438 1636 1175 2050 242 136 577 241 856 271 135
14 364 12 501 -4z"/>
</g>
</svg>
